<svg width="400" height="400" viewBox="0 0 400 400" fill="none" xmlns="http://www.w3.org/2000/svg">
<rect width="400" height="400" fill="white"/>
<path d="M294.207 21.075L271.549 48.0196L82.5761 375.33L93.2282 381.48L282.201 54.1696L294.207 21.075Z" fill="black"/>
<path d="M106.911 21.075L118.917 54.1696L307.89 381.48L318.542 375.33L129.569 48.0196L106.911 21.075Z" fill="black"/>
<rect width="1.11818" height="279.545" transform="matrix(-1 0 0 1 318.527 60.5264)" fill="black"/>
<rect width="5.59091" height="35.7818" transform="matrix(-1 0 0 1 320.764 60.5264)" fill="black"/>
<rect width="10.0636" height="1.11818" transform="matrix(-1 0 0 1 323 331.126)" fill="black"/>
<rect width="1.11818" height="279.545" transform="matrix(-1 0 0 1 82.5909 59.4082)" fill="black"/>
<rect width="5.59091" height="35.7818" transform="matrix(-1 0 0 1 84.8273 59.4082)" fill="black"/>
<rect width="10.0636" height="1.11818" transform="matrix(-1 0 0 1 87.0636 330.008)" fill="black"/>
</svg>
